<svg width="610" height="83" viewBox="0 0 610 83" fill="none" xmlns="http://www.w3.org/2000/svg">
<path d="M551.943 72.2V12H574.389C579.263 12 583.276 12.8313 586.429 14.494C589.583 16.1567 591.933 18.3927 593.481 21.202C595.029 23.954 595.803 27.0213 595.803 30.404C595.803 33.6147 595.058 36.6247 593.567 39.434C592.077 42.186 589.726 44.422 586.515 46.142C583.362 47.8047 579.291 48.636 574.303 48.636H563.553V72.2H551.943ZM583.161 72.2L570.777 45.712H583.333L596.405 72.2H583.161ZM563.553 40.208H573.701C577.199 40.208 579.779 39.348 581.441 37.628C583.104 35.908 583.935 33.6433 583.935 30.834C583.935 28.0247 583.104 25.8173 581.441 24.212C579.836 22.5493 577.256 21.718 573.701 21.718H563.553V40.208Z" fill="currentColor"/>
<path d="M500.085 72.2V12H539.645V21.374H511.695V37.112H537.065V46.142H511.695V62.826H539.645V72.2H500.085Z" fill="currentColor"/>
<path d="M442.179 72.2V12H453.789V35.822L475.547 12H489.823L467.721 35.822L490.511 72.2H476.321L459.379 44.852L453.789 50.872V72.2H442.179Z" fill="currentColor"/>
<path d="M377.807 72.2V12H389.417L417.109 53.538V12H428.719V72.2H417.109L389.417 30.748V72.2H377.807Z" fill="currentColor"/>
<path d="M352.655 72.2V12H364.265V72.2H352.655Z" fill="currentColor"/>
<path d="M313.639 72.2V21.374H296.009V12H342.707V21.374H325.163V72.2H313.639Z" fill="currentColor"/>
<path d="M288.108 72.63C285.929 72.63 284.18 71.9994 282.862 70.738C281.543 69.4194 280.884 67.814 280.884 65.922C280.884 64.03 281.543 62.4533 282.862 61.192C284.18 59.8733 285.929 59.214 288.108 59.214C290.172 59.214 291.863 59.8733 293.182 61.192C294.5 62.4533 295.16 64.03 295.16 65.922C295.16 67.814 294.5 69.4194 293.182 70.738C291.863 71.9994 290.172 72.63 288.108 72.63Z" fill="#00E5FF"/>
<path d="M223.066 72.4V12.2H243.19C250.185 12.2 255.947 13.4613 260.476 15.984C265.063 18.4493 268.445 21.9467 270.624 26.476C272.86 30.948 273.978 36.2227 273.978 42.3C273.978 48.3773 272.86 53.6807 270.624 58.21C268.445 62.682 265.091 66.1794 260.562 68.702C256.033 71.1674 250.242 72.4 243.19 72.4H223.066ZM234.676 62.424H242.588C247.519 62.424 251.389 61.6213 254.198 60.016C257.065 58.4107 259.1 56.1174 260.304 53.136C261.508 50.0974 262.11 46.4853 262.11 42.3C262.11 38.0573 261.508 34.4453 260.304 31.464C259.1 28.4253 257.065 26.1033 254.198 24.498C251.389 22.8927 247.519 22.09 242.588 22.09H234.676V62.424Z" fill="currentColor"/>
<path d="M171.34 72.2V12H210.9V21.374H182.95V37.112H208.32V46.142H182.95V62.826H210.9V72.2H171.34Z" fill="currentColor"/>
<path d="M119.481 72.2V12H159.041V21.374H131.091V37.112H156.461V46.142H131.091V62.826H159.041V72.2H119.481Z" fill="currentColor"/>
<path d="M63.5071 72.2V12H85.9531C90.8264 12 94.8398 12.8313 97.9931 14.494C101.146 16.1567 103.497 18.3927 105.045 21.202C106.593 23.954 107.367 27.0213 107.367 30.404C107.367 33.6147 106.622 36.6247 105.131 39.434C103.64 42.186 101.29 44.422 98.0791 46.142C94.9258 47.8047 90.8551 48.636 85.8671 48.636H75.1171V72.2H63.5071ZM94.7251 72.2L82.3411 45.712H94.8971L107.969 72.2H94.7251ZM75.1171 40.208H85.2651C88.7624 40.208 91.3424 39.348 93.0051 37.628C94.6678 35.908 95.4991 33.6433 95.4991 30.834C95.4991 28.0247 94.6678 25.8173 93.0051 24.212C91.3998 22.5493 88.8198 21.718 85.2651 21.718H75.1171V40.208Z" fill="currentColor"/>
<path d="M14 72.2V12H53.216V21.374H25.61V37.456H47.712V46.572H25.61V72.2H14Z" fill="currentColor"/>
</svg>
