<svg class="dark-mode-icon-dark" data-name="Layer 1" fill="currentColor" height="20px" viewBox="0 0 64 64" width="20px" x="0px" xmlns="http://www.w3.org/2000/svg" y="0px">
    <title>Dark mode</title>
    <path d="M33.28,58.24A26.95,26.95,0,0,1,24,6l.39-.13a2,2,0,0,1,2.4,2.87,22.42,22.42,0,0,0-1.51,18.75h0A22.47,22.47,0,0,0,54.09,40.8l.76-.3a2,2,0,0,1,2.24.48,2,2,0,0,1,.35,2.24,27,27,0,0,1-24.16,15ZM21.11,11.85a22.94,22.94,0,1,0,30,33.91A26.46,26.46,0,0,1,21.53,28.87h0A26.4,26.4,0,0,1,21.11,11.85Z"></path>
</svg>